<mxfile host="app.diagrams.net" modified="2022-04-26T00:39:31.885Z" agent="5.0 (Windows NT 10.0; Win64; x64) AppleWebKit/537.36 (KHTML, like Gecko) Chrome/97.0.4692.99 Safari/537.36" etag="YmyDzMtv-IbmMb4upBce" version="17.4.6" type="github">
  <diagram id="GG9JWEwuXqdt1Zyl7t1p" name="Page-1">
    <mxGraphModel dx="1038" dy="525" grid="1" gridSize="10" guides="1" tooltips="1" connect="1" arrows="1" fold="1" page="1" pageScale="1" pageWidth="850" pageHeight="1100" math="0" shadow="0">
      <root>
        <mxCell id="0" />
        <mxCell id="1" parent="0" />
        <mxCell id="2rpih8vmDzemm6GKuzEQ-3" value="" style="edgeStyle=orthogonalEdgeStyle;rounded=0;orthogonalLoop=1;jettySize=auto;html=1;" edge="1" parent="1" source="2rpih8vmDzemm6GKuzEQ-1">
          <mxGeometry relative="1" as="geometry">
            <mxPoint x="380" y="140" as="targetPoint" />
          </mxGeometry>
        </mxCell>
        <mxCell id="2rpih8vmDzemm6GKuzEQ-1" value="start" style="rounded=1;whiteSpace=wrap;html=1;" vertex="1" parent="1">
          <mxGeometry x="320" y="20" width="120" height="60" as="geometry" />
        </mxCell>
        <mxCell id="2rpih8vmDzemm6GKuzEQ-6" value="" style="edgeStyle=orthogonalEdgeStyle;rounded=0;orthogonalLoop=1;jettySize=auto;html=1;" edge="1" parent="1" source="2rpih8vmDzemm6GKuzEQ-4" target="2rpih8vmDzemm6GKuzEQ-5">
          <mxGeometry relative="1" as="geometry" />
        </mxCell>
        <mxCell id="2rpih8vmDzemm6GKuzEQ-4" value="主函数中调用test()" style="rounded=0;whiteSpace=wrap;html=1;" vertex="1" parent="1">
          <mxGeometry x="320" y="130" width="120" height="60" as="geometry" />
        </mxCell>
        <mxCell id="2rpih8vmDzemm6GKuzEQ-8" value="" style="edgeStyle=orthogonalEdgeStyle;rounded=0;orthogonalLoop=1;jettySize=auto;html=1;" edge="1" parent="1" source="2rpih8vmDzemm6GKuzEQ-5" target="2rpih8vmDzemm6GKuzEQ-7">
          <mxGeometry relative="1" as="geometry" />
        </mxCell>
        <mxCell id="2rpih8vmDzemm6GKuzEQ-12" value="" style="edgeStyle=orthogonalEdgeStyle;rounded=0;orthogonalLoop=1;jettySize=auto;html=1;" edge="1" parent="1" source="2rpih8vmDzemm6GKuzEQ-5">
          <mxGeometry relative="1" as="geometry">
            <mxPoint x="380" y="420" as="targetPoint" />
          </mxGeometry>
        </mxCell>
        <mxCell id="2rpih8vmDzemm6GKuzEQ-5" value="创建两个空队列，&lt;br&gt;并初始化" style="rounded=0;whiteSpace=wrap;html=1;" vertex="1" parent="1">
          <mxGeometry x="320" y="250" width="120" height="60" as="geometry" />
        </mxCell>
        <mxCell id="2rpih8vmDzemm6GKuzEQ-10" value="" style="edgeStyle=orthogonalEdgeStyle;rounded=0;orthogonalLoop=1;jettySize=auto;html=1;" edge="1" parent="1" source="2rpih8vmDzemm6GKuzEQ-7" target="2rpih8vmDzemm6GKuzEQ-9">
          <mxGeometry relative="1" as="geometry" />
        </mxCell>
        <mxCell id="2rpih8vmDzemm6GKuzEQ-7" value="创建一个含10个舞者的舞者数组" style="rounded=0;whiteSpace=wrap;html=1;" vertex="1" parent="1">
          <mxGeometry x="320" y="370" width="120" height="60" as="geometry" />
        </mxCell>
        <mxCell id="2rpih8vmDzemm6GKuzEQ-14" value="" style="edgeStyle=orthogonalEdgeStyle;rounded=0;orthogonalLoop=1;jettySize=auto;html=1;" edge="1" parent="1" source="2rpih8vmDzemm6GKuzEQ-9" target="2rpih8vmDzemm6GKuzEQ-13">
          <mxGeometry relative="1" as="geometry" />
        </mxCell>
        <mxCell id="2rpih8vmDzemm6GKuzEQ-9" value="舞者根据自身性别分别进入不同的队列" style="rounded=0;whiteSpace=wrap;html=1;" vertex="1" parent="1">
          <mxGeometry x="320" y="490" width="120" height="60" as="geometry" />
        </mxCell>
        <mxCell id="2rpih8vmDzemm6GKuzEQ-16" value="" style="edgeStyle=orthogonalEdgeStyle;rounded=0;orthogonalLoop=1;jettySize=auto;html=1;" edge="1" parent="1" source="2rpih8vmDzemm6GKuzEQ-13" target="2rpih8vmDzemm6GKuzEQ-15">
          <mxGeometry relative="1" as="geometry" />
        </mxCell>
        <mxCell id="2rpih8vmDzemm6GKuzEQ-13" value="利用DancingPartner类的有参构造函数创建对象party&lt;br&gt;" style="whiteSpace=wrap;html=1;rounded=0;" vertex="1" parent="1">
          <mxGeometry x="320" y="600" width="120" height="60" as="geometry" />
        </mxCell>
        <mxCell id="2rpih8vmDzemm6GKuzEQ-18" value="" style="edgeStyle=orthogonalEdgeStyle;rounded=0;orthogonalLoop=1;jettySize=auto;html=1;" edge="1" parent="1" source="2rpih8vmDzemm6GKuzEQ-15" target="2rpih8vmDzemm6GKuzEQ-17">
          <mxGeometry relative="1" as="geometry" />
        </mxCell>
        <mxCell id="2rpih8vmDzemm6GKuzEQ-15" value="对象party调用成员函数FindPartner()" style="whiteSpace=wrap;html=1;rounded=0;" vertex="1" parent="1">
          <mxGeometry x="320" y="720" width="120" height="60" as="geometry" />
        </mxCell>
        <mxCell id="2rpih8vmDzemm6GKuzEQ-20" value="" style="edgeStyle=orthogonalEdgeStyle;rounded=0;orthogonalLoop=1;jettySize=auto;html=1;" edge="1" parent="1" source="2rpih8vmDzemm6GKuzEQ-17">
          <mxGeometry relative="1" as="geometry">
            <mxPoint x="380" y="950" as="targetPoint" />
          </mxGeometry>
        </mxCell>
        <mxCell id="2rpih8vmDzemm6GKuzEQ-17" value="test()函数结束，返回main()" style="whiteSpace=wrap;html=1;rounded=0;" vertex="1" parent="1">
          <mxGeometry x="320" y="830" width="120" height="60" as="geometry" />
        </mxCell>
        <mxCell id="2rpih8vmDzemm6GKuzEQ-21" value="end" style="rounded=1;whiteSpace=wrap;html=1;" vertex="1" parent="1">
          <mxGeometry x="320" y="940" width="120" height="60" as="geometry" />
        </mxCell>
      </root>
    </mxGraphModel>
  </diagram>
</mxfile>
